<svg xmlns="http://www.w3.org/2000/svg"  viewBox="0 0 48 48" width="48px" height="48px"><path d="M 27.484375 3.984375 A 1.50015 1.50015 0 0 0 27.285156 4 L 12.5 4 C 10.032499 4 8 6.0324991 8 8.5 L 8 11.511719 A 1.50015 1.50015 0 1 0 11 11.511719 L 11 8.5 C 11 7.6535009 11.653501 7 12.5 7 L 26 7 L 26 13.5 C 26 15.967501 28.032499 18 30.5 18 L 31.638672 18 A 1.50015 1.50015 0 1 0 31.638672 15 L 30.5 15 C 29.653501 15 29 14.346499 29 13.5 L 29 9.1210938 L 37 17.121094 L 37 33.53125 A 1.50015 1.50015 0 1 0 40 33.53125 L 40 16.5 A 1.50015 1.50015 0 0 0 39.560547 15.439453 L 28.560547 4.4394531 A 1.50015 1.50015 0 0 0 28.552734 4.4316406 A 1.50015 1.50015 0 0 0 28.544922 4.4238281 A 1.50015 1.50015 0 0 0 28.521484 4.4042969 A 1.50015 1.50015 0 0 0 28.431641 4.3242188 A 1.50015 1.50015 0 0 0 27.484375 3.984375 z M 9.4765625 15.607422 A 1.50015 1.50015 0 0 0 8 17.128906 L 8 39.5 C 8 41.967501 10.032499 44 12.5 44 L 35.5 44 C 37.967501 44 40 41.967501 40 39.5 A 1.50015 1.50015 0 1 0 37 39.5 C 37 40.346499 36.346499 41 35.5 41 L 12.5 41 C 11.653501 41 11 40.346499 11 39.5 L 11 17.128906 A 1.50015 1.50015 0 0 0 9.4765625 15.607422 z M 18.375 22.09375 C 17.013217 22.09375 15.875 23.230623 15.875 24.59375 L 15.875 32.53125 C 15.875 33.894844 17.011406 35.03125 18.375 35.03125 L 29.5625 35.03125 C 30.926094 35.03125 32.0625 33.894844 32.0625 32.53125 L 32.0625 24.59375 C 32.0625 23.230156 30.926094 22.09375 29.5625 22.09375 L 18.375 22.09375 z M 18.875 25.09375 L 21.46875 25.09375 L 21.46875 27.0625 L 18.875 27.0625 L 18.875 25.09375 z M 24.46875 25.09375 L 29.0625 25.09375 L 29.0625 27.0625 L 24.46875 27.0625 L 24.46875 25.09375 z M 18.875 30.0625 L 21.46875 30.0625 L 21.46875 32.03125 L 18.875 32.03125 L 18.875 30.0625 z M 24.46875 30.0625 L 29.0625 30.0625 L 29.0625 32.03125 L 24.46875 32.03125 L 24.46875 30.0625 z"/></svg>