<?xml version="1.0" encoding="UTF-8" standalone="no"?>
<svg
   viewBox="0 0 50 50"
   width="50px"
   height="50px"
   version="1.1"
   id="svg6703"
   sodipodi:docname="icons8-html-5.svg"
   inkscape:version="1.2 (dc2aedaf03, 2022-05-15)"
   xmlns:inkscape="http://www.inkscape.org/namespaces/inkscape"
   xmlns:sodipodi="http://sodipodi.sourceforge.net/DTD/sodipodi-0.dtd"
   xmlns="http://www.w3.org/2000/svg"
   xmlns:svg="http://www.w3.org/2000/svg">
  <defs
     id="defs6707" />
  <sodipodi:namedview
     id="namedview6705"
     pagecolor="#ffffff"
     bordercolor="#999999"
     borderopacity="1"
     inkscape:showpageshadow="0"
     inkscape:pageopacity="0"
     inkscape:pagecheckerboard="0"
     inkscape:deskcolor="#d1d1d1"
     showgrid="false"
     inkscape:zoom="11.836968"
     inkscape:cx="19.092728"
     inkscape:cy="32.271779"
     inkscape:window-width="1920"
     inkscape:window-height="1017"
     inkscape:window-x="-8"
     inkscape:window-y="-8"
     inkscape:window-maximized="1"
     inkscape:current-layer="svg6703" />
  <path
     d="M 47.036346,0.35241196 C 46.832541,0.12737826 46.539572,0 46.233865,0 H 3.7661348 C 3.4604283,0 3.1674598,0.12737826 2.9636554,0.35241196 2.7556043,0.57744565 2.6537022,0.87890652 2.6834239,1.184613 l 3.8255772,42.85411 c 0.038214,0.450068 0.3524119,0.82371 0.7854967,0.951087 L 24.698539,49.957541 C 24.79195,49.987262 24.893852,50 24.995754,50 c 0.101903,0 0.199559,-0.01274 0.297214,-0.04246 l 17.416781,-4.96773 c 0.433084,-0.127377 0.743037,-0.501019 0.785496,-0.951087 l 3.821331,-42.85411 c 0.02972,-0.30570648 -0.07218,-0.60716735 -0.28023,-0.83220104 z M 37.877887,15.128227 h -20.44837 l 0.488282,5.532439 H 37.38536 L 35.924762,37.011718 24.991509,40.315048 24.88536,40.28108 14.079484,37.007473 13.4893,30.345618 h 5.294667 l 0.229281,2.585768 6.041949,1.265286 5.931556,-1.265286 0.632643,-6.997283 H 13.094429 L 11.655061,9.8420522 h 26.694124 z"
     id="path6701"
     style="stroke-width:1.08696" />
</svg>
