<svg xmlns="http://www.w3.org/2000/svg"  viewBox="0 0 48 48" width="48px" height="48px"><path d="M 10.664062 5 C 8.6444495 5 7.0165503 6.7625042 7.1757812 8.7753906 L 7.7402344 15.910156 A 1.50015 1.50015 0 1 0 10.730469 15.671875 L 10.166016 8.5390625 C 10.141247 8.2259489 10.349677 8 10.664062 8 L 37.335938 8 C 37.650323 8 37.858753 8.2259489 37.833984 8.5390625 L 36.291016 28.029297 A 1.5007526 1.5007526 0 0 0 39.283203 28.265625 L 40.824219 8.7753906 C 40.98345 6.7625042 39.35555 5 37.335938 5 L 10.664062 5 z M 16.058594 13 C 15.476594 13 15.016547 13.494219 15.060547 14.074219 L 15.810547 24.074219 C 15.849547 24.596219 16.285594 25 16.808594 25 L 29.289062 25 L 28.820312 31.380859 L 24.011719 32.919922 L 19.361328 31.390625 L 19.212891 29.390625 C 19.154891 28.606625 18.502797 28 17.716797 28 C 16.843797 28 16.155703 28.741328 16.220703 29.611328 L 16.470703 32.945312 C 16.500703 33.348312 16.770297 33.693312 17.154297 33.820312 L 23.681641 35.978516 C 23.882641 36.045516 24.098781 36.045469 24.300781 35.980469 L 31.017578 33.826172 C 31.405578 33.702172 31.678984 33.353266 31.708984 32.947266 L 32.439453 23.074219 C 32.482453 22.494219 32.024359 22 31.443359 22 L 18.660156 22 L 18.220703 16 L 31.371094 16 C 32.155094 16 32.806187 15.396234 32.867188 14.615234 C 32.933187 13.744234 32.245094 13 31.371094 13 L 16.058594 13 z M 9.765625 20.894531 A 1.50015 1.50015 0 0 0 8.2636719 22.533203 L 9.4628906 37.691406 C 9.5710695 39.059346 10.477612 40.247529 11.771484 40.710938 L 22.818359 44.669922 A 1.50015 1.50015 0 0 0 22.820312 44.669922 C 23.583047 44.942827 24.416953 44.942827 25.179688 44.669922 L 36.226562 40.710938 C 37.521259 40.247921 38.426934 39.05989 38.535156 37.691406 L 38.816406 34.140625 A 1.50015 1.50015 0 1 0 35.826172 33.904297 L 35.544922 37.455078 C 35.529142 37.654594 35.404101 37.819734 35.216797 37.886719 A 1.50015 1.50015 0 0 0 35.214844 37.886719 L 24.167969 41.845703 C 24.058703 41.884803 23.939344 41.884803 23.830078 41.845703 L 12.783203 37.886719 C 12.595899 37.819729 12.470856 37.654594 12.455078 37.455078 L 11.253906 22.296875 A 1.50015 1.50015 0 0 0 9.765625 20.894531 z"/></svg>