<svg xmlns="http://www.w3.org/2000/svg"  viewBox="0 0 16 16" width="16px" height="16px"><path d="M13.971 11c0 0 .029-1 1.015-.971C15.544 10.046 16 10.247 16 10.515 16 10.783 15.546 11 14.985 11S14 11 13.971 11zM14 12c0 0 0 .224 0 .5 0 .276.224.5.5.5s.5-.224.5-.5C15 12.224 14.276 12 14 12zM3 12c0 0-.244-.012-.531-.026-.287-.014-.492.273-.49.463.006.506.315.551.537.531C2.77 12.943 2.865 12.332 3 12zM14.87 7.51L9.63 1.45C9.35 1.17 8.98 1 8.58 1 8.19 1 7.81 1.17 7.53 1.46l-5.4 6.03C2 7.65 1.96 7.87 2.04 8.06 2.08 8.17 2.16 8.25 2.25 8.3c.03.02.07.04.1.05C3.42 8.99 4 9.19 4 9.76c0 .36-.18.44-.63.72-.47.3-.26.67.32.75 1.2.17 2.64.55 1.91 1.15 0 0-.75.76 0 .99 2.01.59.98.43 1.45 1.16.58.86 1.92.34 2.65.01 1.36-.61.87-1.04.23-1.44-.68-.41-1.6-.4 1.67-1.08.94-.2.92-.8.44-1.33-1.11-1.22 2.14-1.41 2.84-2.5.01 0 .01-.01.01-.01.03-.03.05-.08.07-.12C15.04 7.88 15 7.66 14.87 7.51zM8 9C7.83 9 7.68 8.99 7.54 8.95L4 8h4c.55 0 1 .23 1 .5C9 8.77 8.55 9 8 9zM11 5.92l-1-1.01L9 5.92 8 3.91l-1 1H6l2.24-2.75c.09-.09.22-.15.34-.15.13 0 .26.06.34.13l2.88 3.22L11 5.92z"/></svg>