<?xml version="1.0" encoding="UTF-8" standalone="no"?>
<svg
   viewBox="0 0 50 50"
   width="50px"
   height="50px"
   version="1.1"
   id="svg6445"
   sodipodi:docname="icons8-logo-javascript.svg"
   inkscape:version="1.2 (dc2aedaf03, 2022-05-15)"
   xmlns:inkscape="http://www.inkscape.org/namespaces/inkscape"
   xmlns:sodipodi="http://sodipodi.sourceforge.net/DTD/sodipodi-0.dtd"
   xmlns="http://www.w3.org/2000/svg"
   xmlns:svg="http://www.w3.org/2000/svg">
  <defs
     id="defs6449" />
  <sodipodi:namedview
     id="namedview6447"
     pagecolor="#ffffff"
     bordercolor="#999999"
     borderopacity="1"
     inkscape:showpageshadow="0"
     inkscape:pageopacity="0"
     inkscape:pagecheckerboard="0"
     inkscape:deskcolor="#d1d1d1"
     showgrid="false"
     inkscape:zoom="8.37"
     inkscape:cx="1.911589"
     inkscape:cy="20.549582"
     inkscape:window-width="1920"
     inkscape:window-height="1017"
     inkscape:window-x="-8"
     inkscape:window-y="-8"
     inkscape:window-maximized="1"
     inkscape:current-layer="svg6445" />
  <path
     d="M 47.036958,0.35326087 C 46.830436,0.12826087 46.540219,0 46.234784,0 H 3.7652187 C 3.4597839,0 3.1695665,0.12826087 2.9630448,0.35326087 2.7565231,0.57826087 2.6554361,0.88043478 2.68261,1.1836957 L 6.508697,44.03913 c 0.040217,0.447827 0.3521739,0.825 0.7847826,0.948913 L 24.695653,49.958696 C 24.792393,49.98587 24.89348,50 24.99348,50 c 0.1,0 0.201087,-0.01413 0.297826,-0.0413 L 42.708697,44.988043 C 43.141306,44.86413 43.453262,44.486957 43.49348,44.03913 L 47.317393,1.1836957 c 0.02717,-0.30326092 -0.075,-0.60543483 -0.280435,-0.83043483 z M 10.869567,29.352174 18.478262,31.463043 V 9.7826087 h 4.347826 V 38.043478 L 10.869567,34.727174 Z M 39.189132,21.73913 38.04348,35.054348 27.173914,38.043478 V 33.042391 L 34.510871,31.026087 34.78261,26.95 27.173914,28.26087 V 9.7826087 h 13.043479 l -0.375,4.3478263 H 31.52174 v 8.695652 z"
     id="path6443"
     style="stroke-width:1.08696" />
</svg>
