<svg xmlns="http://www.w3.org/2000/svg"  viewBox="0 0 50 50" width="50px" height="50px"><path d="M 41.5 2 C 38.467 2 36 4.467 36 7.5 C 36 10.533 38.467 13 41.5 13 C 44.533 13 47 10.533 47 7.5 C 47 4.467 44.533 2 41.5 2 z M 24.1875 2.0136719 C 23.7425 2.0306719 23.295703 2.0595625 22.845703 2.1015625 C 21.557703 2.2225625 20.274203 2.4512031 19.033203 2.7832031 L 19.548828 4.7167969 C 20.682828 4.4137969 21.85425 4.2027969 23.03125 4.0917969 C 23.44325 4.0537969 23.854719 4.0267187 24.261719 4.0117188 L 24.1875 2.0136719 z M 29.388672 2.4160156 L 29.007812 4.3808594 C 30.568813 4.6828594 32.096828 5.1654531 33.548828 5.8144531 L 34.365234 3.9882812 C 32.773234 3.2772812 31.098672 2.7480156 29.388672 2.4160156 z M 41.5 4 C 43.43 4 45 5.57 45 7.5 C 45 9.43 43.43 11 41.5 11 C 39.57 11 38 9.43 38 7.5 C 38 5.57 39.57 4 41.5 4 z M 14.179688 4.6972656 C 12.645687 5.5152656 11.202672 6.5122031 9.8886719 7.6582031 L 11.203125 9.1640625 C 12.402125 8.1170625 13.722094 7.2088906 15.121094 6.4628906 L 14.179688 4.6972656 z M 25 8 C 15.626 8 8 15.626 8 25 C 8 34.374 15.626 42 25 42 C 34.374 42 42 34.374 42 25 C 42 15.626 34.374 8 25 8 z M 25 10 C 33.271 10 40 16.729 40 25 C 40 33.271 33.271 40 25 40 C 16.729 40 10 33.271 10 25 C 10 16.729 16.729 10 25 10 z M 6.3730469 11.507812 C 5.3500469 12.920812 4.4865938 14.447828 3.8085938 16.048828 L 5.6503906 16.828125 C 6.2693906 15.366125 7.0581875 13.971641 7.9921875 12.681641 L 6.3730469 11.507812 z M 30 14 A 5 5 0 0 0 30 24 A 5 5 0 0 0 30 14 z M 45.511719 14.578125 L 43.728516 15.484375 C 44.449516 16.901375 45.005719 18.402313 45.386719 19.945312 L 47.328125 19.46875 C 46.911125 17.77775 46.300719 16.131125 45.511719 14.578125 z M 2.3359375 21.054688 C 2.1119375 22.343687 1.9980469 23.662609 1.9980469 24.974609 C 1.9980469 25.400609 2.0092031 25.828766 2.0332031 26.259766 L 4.03125 26.148438 C 4.00925 25.755437 3.9980469 25.363609 3.9980469 24.974609 C 3.9980469 23.776609 4.1026406 22.572484 4.3066406 21.396484 L 2.3359375 21.054688 z M 47.898438 22.84375 L 45.908203 23.03125 C 45.971203 23.69125 46.003906 24.362391 46.003906 25.025391 C 46.003906 25.947391 45.941313 26.878922 45.820312 27.794922 L 47.802734 28.058594 C 47.935734 27.056594 48.002906 26.035391 48.003906 25.025391 C 48.003906 24.300391 47.966437 23.56575 47.898438 22.84375 z M 14 24 L 14 34 L 20 34 L 20 32 L 16 32 L 16 24 L 14 24 z M 32.822266 25.285156 C 31.201266 25.285156 29.5625 26.208656 29.5625 27.972656 L 31.5625 27.972656 C 31.5625 27.453656 32.411266 27.285156 32.822266 27.285156 C 33.542266 27.285156 33.885797 27.581031 33.966797 28.207031 C 33.699797 28.400031 33.071922 28.578609 32.544922 28.724609 C 31.216922 29.089609 29.208984 29.641 29.208984 31.625 C 29.208984 33.242 30.612703 34.207031 31.970703 34.207031 C 32.357703 34.207031 33.183953 34.115984 34.001953 33.833984 L 34.001953 34 L 36.001953 34 L 36.001953 28.482422 C 36.000953 26.540422 34.752266 25.285156 32.822266 25.285156 z M 21 26 L 21 31.492188 C 21 33.093187 22.301344 34.394531 23.902344 34.394531 L 24.152344 34.394531 C 24.825344 34.394531 25.449 34.206344 26 33.902344 L 26 34 L 28 34 L 28 30.548828 L 28 30 L 28 26 L 26 26 L 26 30.548828 C 26 31.566828 25.170344 32.394531 24.152344 32.394531 L 23.902344 32.394531 C 23.404344 32.394531 23 31.990187 23 31.492188 L 23 26 L 21 26 z M 34 30.371094 L 34 31.634766 C 33.584 31.946766 32.614703 32.207031 31.970703 32.207031 C 31.962703 32.207031 31.207031 32.192 31.207031 31.625 C 31.207031 31.233 31.810219 31.000344 33.074219 30.652344 C 33.386219 30.566344 33.697 30.474094 34 30.371094 z M 4.8261719 30.847656 L 2.9042969 31.400391 C 3.3862969 33.072391 4.0621094 34.693844 4.9121094 36.214844 L 6.6582031 35.240234 C 5.8822031 33.851234 5.2661719 32.373656 4.8261719 30.847656 z M 44.65625 32.412109 C 44.09425 33.898109 43.360563 35.323484 42.476562 36.646484 L 44.140625 37.757812 C 45.107625 36.307813 45.911344 34.746141 46.527344 33.119141 L 44.65625 32.412109 z M 9.4355469 39.103516 L 7.9550781 40.447266 C 9.1250781 41.736266 10.444047 42.892719 11.873047 43.886719 L 13.015625 42.246094 C 11.709625 41.336094 10.504547 40.280516 9.4355469 39.103516 z M 39.402344 40.283203 C 38.243344 41.376203 36.96275 42.337672 35.59375 43.138672 L 36.603516 44.865234 C 38.103516 43.988234 39.506391 42.936281 40.775391 41.738281 L 39.402344 40.283203 z M 17.207031 44.505859 L 16.464844 46.361328 C 18.082844 47.010328 19.774094 47.472328 21.496094 47.736328 L 21.800781 45.761719 C 20.229781 45.520719 18.684031 45.097859 17.207031 44.505859 z M 31.238281 45.056641 C 29.859281 45.483641 28.420844 45.770203 26.964844 45.908203 L 26.550781 45.943359 L 26.714844 47.9375 L 27.154297 47.898438 C 28.746297 47.747437 30.319078 47.434797 31.830078 46.966797 L 31.238281 45.056641 z"/></svg>