<?xml version="1.0" encoding="UTF-8" standalone="no"?>
<svg
   width="65"
   height="48"
   fill="currentColor"
   class="bi bi-envelope"
   viewBox="0 0 65 48"
   version="1.1"
   id="svg4"
   sodipodi:docname="envelope.svg"
   inkscape:version="1.3 (0e150ed6c4, 2023-07-21)"
   xml:space="preserve"
   xmlns:inkscape="http://www.inkscape.org/namespaces/inkscape"
   xmlns:sodipodi="http://sodipodi.sourceforge.net/DTD/sodipodi-0.dtd"
   xmlns="http://www.w3.org/2000/svg"
   xmlns:svg="http://www.w3.org/2000/svg"><defs
     id="defs8" /><sodipodi:namedview
     id="namedview6"
     pagecolor="#ffffff"
     bordercolor="#999999"
     borderopacity="1"
     inkscape:showpageshadow="0"
     inkscape:pageopacity="0"
     inkscape:pagecheckerboard="0"
     inkscape:deskcolor="#d1d1d1"
     showgrid="false"
     inkscape:zoom="3.2695313"
     inkscape:cx="5.199522"
     inkscape:cy="16.669056"
     inkscape:window-width="1920"
     inkscape:window-height="1017"
     inkscape:window-x="-8"
     inkscape:window-y="-8"
     inkscape:window-maximized="1"
     inkscape:current-layer="svg4" /><path
     d="M 0.91756273,13.223417 A 5.3500597,6.3823178 0 0 1 6.2676224,6.8410994 H 38.367982 a 5.3500597,6.3823178 0 0 1 5.350059,6.3823176 v 25.529271 a 5.3500597,6.3823178 0 0 1 -5.350059,6.382318 H 6.2676224 A 5.3500597,6.3823178 0 0 1 0.91756273,38.752688 Z M 6.2676224,10.032258 a 2.6750299,3.1911589 0 0 0 -2.6750298,3.191159 v 0.692481 L 22.317802,27.318766 41.043012,13.915898 v -0.692481 a 2.6750299,3.1911589 0 0 0 -2.67503,-3.191159 z m 34.7753896,7.604531 -12.594041,9.015025 12.594041,9.244787 z m -0.09095,21.942408 -15.087169,-11.076511 -3.547089,2.53697 -3.547089,-2.53697 -15.0871695,11.07332 a 2.6750299,3.1911589 0 0 0 2.5840789,2.367841 H 38.367982 a 2.6750299,3.1911589 0 0 0 2.58408,-2.36465 z M 3.5925926,35.896601 16.186634,26.651814 3.5925926,17.636789 Z"
     id="path2"
     style="opacity:1;mix-blend-mode:multiply;fill:#000000;fill-opacity:1;stroke:none;stroke-width:2.92172" /></svg>
