<?xml version="1.0" encoding="UTF-8" standalone="no"?>
<svg
   viewBox="0 0 65 48"
   width="65"
   height="48"
   version="1.1"
   id="svg1"
   sodipodi:docname="github.svg"
   inkscape:version="1.3 (0e150ed6c4, 2023-07-21)"
   xmlns:inkscape="http://www.inkscape.org/namespaces/inkscape"
   xmlns:sodipodi="http://sodipodi.sourceforge.net/DTD/sodipodi-0.dtd"
   xmlns="http://www.w3.org/2000/svg"
   xmlns:svg="http://www.w3.org/2000/svg">
  <defs
     id="defs1" />
  <sodipodi:namedview
     id="namedview1"
     pagecolor="#ffffff"
     bordercolor="#999999"
     borderopacity="1"
     inkscape:showpageshadow="0"
     inkscape:pageopacity="0"
     inkscape:pagecheckerboard="0"
     inkscape:deskcolor="#d1d1d1"
     inkscape:zoom="5.6568543"
     inkscape:cx="-3.5355339"
     inkscape:cy="38.802484"
     inkscape:window-width="1920"
     inkscape:window-height="1017"
     inkscape:window-x="-8"
     inkscape:window-y="-8"
     inkscape:window-maximized="1"
     inkscape:current-layer="svg1" />
  <path
     d="m 22.232233,4.0658639 c -4.308941,0 -8.333864,1.2821612 -11.691557,3.4837005 a 1.6012863,1.6012863 0 1 0 1.755401,2.6768826 c 2.854677,-1.8717258 6.260814,-2.9583307 9.936156,-2.9583307 10.04044,0 18.146097,8.1056577 18.146097,18.1460977 0,2.890295 -0.672814,5.611757 -1.870065,8.032734 a 1.6013279,1.6013279 0 0 0 2.870769,1.419749 c 1.409383,-2.849931 2.201549,-6.064229 2.201549,-9.452483 0,-11.771169 -9.577181,-21.3483501 -21.34835,-21.3483501 z m -8.75199,9.6880651 c -1.41753,2.269329 -0.562761,4.75176 -0.07922,5.797827 -1.16242,1.367364 -1.842965,3.016723 -1.842965,4.795041 0,4.034838 3.501713,7.407227 8.203687,8.299588 -1.397249,0.718372 -2.44005,2.02474 -2.760275,3.608788 h -1.405154 c -1.384441,0 -1.922369,-0.562546 -2.670629,-1.51148 -0.738653,-0.948934 -1.532895,-1.586583 -2.487166,-1.851302 -0.5144959,-0.05444 -0.8611059,0.336903 -0.41279,0.683814 1.514665,1.031125 1.619205,2.718746 2.226566,3.823523 0.552922,0.994833 1.685768,1.890913 2.96667,1.890913 h 1.676179 v 3.471192 C 9.4692891,40.488764 4.0861359,33.596078 4.0861359,25.414214 c 0,-2.866655 0.6613608,-5.568262 1.8408783,-7.974359 A 1.6012863,1.6012863 0 0 0 4.56564,15.115302 1.6012863,1.6012863 0 0 0 3.0520753,16.03053 c -1.388689,2.832787 -2.16819184,6.023025 -2.16819184,9.383684 0,11.771169 9.57718054,21.34835 21.34834954,21.34835 4.774461,0 9.19916,-1.57352 12.75689,-4.227975 a 1.6021743,1.6021743 0 1 0 -1.915931,-2.568474 c -1.642352,1.225376 -3.501269,2.166986 -5.503872,2.783209 v -5.447581 c 0,-2.036633 -1.17154,-3.784346 -2.866599,-4.655358 4.701974,-0.892361 8.203687,-4.26475 8.203687,-8.299588 0,-1.680116 -0.615467,-3.243232 -1.663671,-4.563627 0.471799,-1.460228 0.992499,-4.025699 -0.258514,-6.029241 -2.402757,0 -3.980984,1.650894 -4.734581,2.685222 -1.240339,-0.403484 -2.594541,-0.631694 -4.017409,-0.631694 -1.422868,0 -2.77707,0.22821 -4.017409,0.631694 -0.753597,-1.034328 -2.330757,-2.685222 -4.734581,-2.685222 z"
     id="path1"
     style="stroke-width:1.06742" />
</svg>
