<?xml version="1.0" encoding="UTF-8" standalone="no"?>
<svg
   width="16"
   height="16"
   fill="currentColor"
   class="bi bi-github"
   viewBox="0 0 16 16"
   version="1.1"
   id="svg185"
   sodipodi:docname="github.svg"
   inkscape:version="1.2 (dc2aedaf03, 2022-05-15)"
   xmlns:inkscape="http://www.inkscape.org/namespaces/inkscape"
   xmlns:sodipodi="http://sodipodi.sourceforge.net/DTD/sodipodi-0.dtd"
   xmlns="http://www.w3.org/2000/svg"
   xmlns:svg="http://www.w3.org/2000/svg">
  <defs
     id="defs189">
    <linearGradient
       id="linearGradient3968"
       inkscape:swatch="solid">
      <stop
         style="stop-color:#000000;stop-opacity:1;"
         offset="0"
         id="stop3966" />
    </linearGradient>
  </defs>
  <sodipodi:namedview
     id="namedview187"
     pagecolor="#ffffff"
     bordercolor="#999999"
     borderopacity="1"
     inkscape:showpageshadow="0"
     inkscape:pageopacity="0"
     inkscape:pagecheckerboard="0"
     inkscape:deskcolor="#d1d1d1"
     showgrid="false"
     inkscape:zoom="36.990524"
     inkscape:cx="5.8122994"
     inkscape:cy="8.6238303"
     inkscape:window-width="1920"
     inkscape:window-height="1017"
     inkscape:window-x="-8"
     inkscape:window-y="-8"
     inkscape:window-maximized="1"
     inkscape:current-layer="svg185" />
  <path
     d="M 8.0061925,0 C 3.5896224,0 0.01240041,3.6705519 0.01240041,8.2023509 c 0,3.6295401 2.28822299,6.6951701 5.46575539,7.7819801 0.3996897,0.07178 0.5495731,-0.174301 0.5495731,-0.389611 0,-0.194807 -0.00999,-0.840742 -0.00999,-1.527688 C 4.0092977,14.446392 3.4897011,13.564639 3.3298254,13.103256 3.2398951,12.867438 2.8501978,12.139479 2.5104618,11.944673 2.230679,11.79088 1.8309894,11.411522 2.5004703,11.401268 c 0.6295113,-0.01025 1.079162,0.594671 1.2290456,0.840741 0.7194412,1.240606 1.868549,0.892004 2.3281919,0.676694 0.069946,-0.533154 0.2797828,-0.892006 0.5096043,-1.097066 -1.7786166,-0.205058 -3.6371733,-0.912511 -3.6371733,-4.0499098 0,-0.8920055 0.3097594,-1.6302173 0.8193637,-2.2043817 -0.079933,-0.2050587 -0.3597151,-1.0457996 0.079943,-2.1736229 0,0 0.66948,-0.2153116 2.1982927,0.8407409 0.6395035,-0.184553 1.3189759,-0.2768294 1.9984483,-0.2768294 0.6794721,0 1.3589446,0.092275 1.9984485,0.2768294 1.528812,-1.0663055 2.198293,-0.8407409 2.198293,-0.8407409 0.439658,1.1278233 0.159875,1.9685642 0.07994,2.1736229 0.509606,0.5741644 0.819363,1.3021231 0.819363,2.2043817 0,3.1476518 -1.868548,3.8448518 -3.6471667,4.0499098 0.2897751,0.256325 0.5395807,0.748465 0.5395807,1.517436 0,1.097065 -0.01,1.978818 -0.01,2.255647 0,0.21531 0.149884,0.471634 0.549571,0.389611 A 8.0057829,8.2146541 0 0 0 16,8.2023509 C 16,3.6705519 12.422777,0 8.0062067,0 Z"
     id="path183"
     style="fill:#00ffff;fill-opacity:1;stroke:none;stroke-width:0.506088;stroke-linecap:round;stroke-linejoin:round;stroke-dasharray:none;stroke-opacity:1" />
</svg>
