<?xml version="1.0" encoding="UTF-8" standalone="no"?>
<svg
   viewBox="0 0 65 48"
   width="65"
   height="48"
   version="1.1"
   id="svg4"
   sodipodi:docname="instagram.svg"
   inkscape:version="1.3 (0e150ed6c4, 2023-07-21)"
   xmlns:inkscape="http://www.inkscape.org/namespaces/inkscape"
   xmlns:sodipodi="http://sodipodi.sourceforge.net/DTD/sodipodi-0.dtd"
   xmlns="http://www.w3.org/2000/svg"
   xmlns:svg="http://www.w3.org/2000/svg">
  <defs
     id="defs4" />
  <sodipodi:namedview
     id="namedview4"
     pagecolor="#ffffff"
     bordercolor="#999999"
     borderopacity="1"
     inkscape:showpageshadow="0"
     inkscape:pageopacity="0"
     inkscape:pagecheckerboard="0"
     inkscape:deskcolor="#d1d1d1"
     inkscape:zoom="8"
     inkscape:cx="16.75"
     inkscape:cy="30.4375"
     inkscape:window-width="1920"
     inkscape:window-height="1017"
     inkscape:window-x="-8"
     inkscape:window-y="-8"
     inkscape:window-maximized="1"
     inkscape:current-layer="svg4" />
  <path
     fill="none"
     stroke="#000000"
     stroke-linecap="round"
     stroke-linejoin="round"
     stroke-miterlimit="10"
     stroke-width="3.31579"
     d="m 42.467109,21.919733 v -5.084212 c 0,-6.078948 -4.973685,-11.0526333 -11.052633,-11.0526333 H 14.835524 c -6.0789482,0 -11.0526335,4.9736853 -11.0526335,11.0526333 v 3.315791"
     id="path1" />
  <path
     fill="none"
     stroke="#000000"
     stroke-linecap="round"
     stroke-linejoin="round"
     stroke-miterlimit="10"
     stroke-width="3.31579"
     d="m 3.7828905,26.893419 v 6.521054 c 0,6.078948 4.9736853,11.052633 11.0526335,11.052633 h 16.578952 c 6.078948,0 11.052633,-4.973685 11.052633,-11.052633 v -5.084212"
     id="path2" />
  <path
     fill="none"
     stroke="#000000"
     stroke-miterlimit="10"
     stroke-width="3.31579"
     d="m 23.125,15.730259 c -5.194737,0 -9.394738,4.200001 -9.394738,9.394738 0,5.194737 4.200001,9.394738 9.394738,9.394738 5.194737,0 9.394738,-4.200001 9.394738,-9.394738 0,-5.194737 -4.200001,-9.394738 -9.394738,-9.394738 z"
     id="path3" />
  <path
     d="m 34.177634,11.861837 c -1.21579,0 -2.210527,0.994736 -2.210527,2.210526 0,1.21579 0.994737,2.210527 2.210527,2.210527 1.21579,0 2.210526,-0.994737 2.210526,-2.210527 0,-1.21579 -0.994736,-2.210526 -2.210526,-2.210526 z"
     id="path4"
     style="stroke-width:1.10527" />
</svg>
