<?xml version="1.0" encoding="UTF-8" standalone="no"?>
<svg
   viewBox="0 0 65 48"
   width="65"
   height="48"
   version="1.1"
   id="svg4"
   sodipodi:docname="linkedin.svg"
   inkscape:version="1.3 (0e150ed6c4, 2023-07-21)"
   xmlns:inkscape="http://www.inkscape.org/namespaces/inkscape"
   xmlns:sodipodi="http://sodipodi.sourceforge.net/DTD/sodipodi-0.dtd"
   xmlns="http://www.w3.org/2000/svg"
   xmlns:svg="http://www.w3.org/2000/svg">
  <defs
     id="defs4" />
  <sodipodi:namedview
     id="namedview4"
     pagecolor="#ffffff"
     bordercolor="#999999"
     borderopacity="1"
     inkscape:showpageshadow="0"
     inkscape:pageopacity="0"
     inkscape:pagecheckerboard="0"
     inkscape:deskcolor="#d1d1d1"
     inkscape:zoom="8"
     inkscape:cx="23.75"
     inkscape:cy="29.4375"
     inkscape:window-width="1920"
     inkscape:window-height="1017"
     inkscape:window-x="-8"
     inkscape:window-y="-8"
     inkscape:window-maximized="1"
     inkscape:current-layer="svg4" />
  <path
     fill="none"
     stroke="#000000"
     stroke-linecap="round"
     stroke-linejoin="round"
     stroke-miterlimit="10"
     stroke-width="3.58333"
     d="m 41.833336,35.572222 v 5.733335 c 0,2.627777 -2.150001,4.777778 -4.777778,4.777778 H 7.1944447 c -2.6277778,0 -4.7777781,-2.150001 -4.7777781,-4.777778 V 27.45"
     id="path1" />
  <path
     fill="none"
     stroke="#000000"
     stroke-linecap="round"
     stroke-linejoin="round"
     stroke-miterlimit="10"
     stroke-width="3.58333"
     d="m 2.4166666,20.641667 v -9.197224 c 0,-2.627777 2.1500003,-4.7777773 4.7777781,-4.7777773 H 37.055558 c 2.627777,0 4.777778,2.1500003 4.777778,4.7777773 v 16.722224"
     id="path2" />
  <circle
     cx="11.972222"
     cy="16.222221"
     r="2.9861112"
     id="circle2"
     style="stroke-width:1.19444" />
  <path
     d="m 13.763889,39.51389 h -3.583333 c -0.7166664,0 -1.1944445,-0.477778 -1.1944445,-1.194445 V 22.791667 c 0,-0.716667 0.4777781,-1.194446 1.1944445,-1.194446 h 3.583333 c 0.716667,0 1.194444,0.477779 1.194444,1.194446 v 15.527778 c 0,0.716667 -0.477777,1.194445 -1.194444,1.194445 z"
     id="path3"
     style="stroke-width:1.19444" />
  <path
     d="m 28.097222,21.597221 c -1.791665,0 -3.463888,0.716668 -4.777777,1.791668 v -0.597222 c 0,-0.716667 -0.477777,-1.194446 -1.194444,-1.194446 h -3.583333 c -0.716667,0 -1.194446,0.477779 -1.194446,1.194446 v 15.527778 c 0,0.716667 0.477779,1.194445 1.194446,1.194445 h 3.583333 c 0.716667,0 1.194444,-0.477778 1.194444,-1.194445 v -8.958334 c 0,-1.672222 1.313889,-2.986111 2.986112,-2.986111 1.672222,0 2.986112,1.313889 2.986112,2.986111 v 8.958334 c 0,0.716667 0.477777,1.194445 1.194444,1.194445 h 3.583333 c 0.716667,0 1.194445,-0.477778 1.194445,-1.194445 v -9.555556 c 0,-3.941668 -3.225,-7.166668 -7.166669,-7.166668 z"
     id="path4"
     style="stroke-width:1.19444" />
</svg>
