<?xml version="1.0" encoding="UTF-8" standalone="no"?>
<svg
   viewBox="0 0 65 48"
   width="65"
   height="48"
   version="1.1"
   id="svg1"
   sodipodi:docname="twitch.svg"
   inkscape:version="1.3 (0e150ed6c4, 2023-07-21)"
   xmlns:inkscape="http://www.inkscape.org/namespaces/inkscape"
   xmlns:sodipodi="http://sodipodi.sourceforge.net/DTD/sodipodi-0.dtd"
   xmlns="http://www.w3.org/2000/svg"
   xmlns:svg="http://www.w3.org/2000/svg">
  <defs
     id="defs1" />
  <sodipodi:namedview
     id="namedview1"
     pagecolor="#ffffff"
     bordercolor="#999999"
     borderopacity="1"
     inkscape:showpageshadow="0"
     inkscape:pageopacity="0"
     inkscape:pagecheckerboard="0"
     inkscape:deskcolor="#d1d1d1"
     inkscape:zoom="5.6568543"
     inkscape:cx="8.131728"
     inkscape:cy="30.140427"
     inkscape:window-width="1920"
     inkscape:window-height="1017"
     inkscape:window-x="-8"
     inkscape:window-y="-8"
     inkscape:window-maximized="1"
     inkscape:current-layer="svg1" />
  <path
     d="M 15.5,6 A 1.50015,1.50015 0 0 0 15.166016,6.033203 C 13.976857,6.123775 12.917643,6.6766952 12.162109,7.5214843 A 1.50015,1.50015 0 0 0 11.931641,7.7675781 L 5.90625,15.691406 a 1.50015,1.50015 0 0 0 -0.00586,0.0098 C 5.3170169,16.47947 5,17.426275 5,18.400391 v 8.8125 a 1.50015,1.50015 0 1 0 3,0 v -8.8125 C 8,18.076506 8.1061556,17.759668 8.3007812,17.5 L 11,13.949219 V 32.5 c 0,1.363594 1.136406,2.5 2.5,2.5 H 19 v 2.5 a 1.50015,1.50015 0 0 0 2.4375,1.171875 L 26.025391,35 H 31.5 a 1.50015,1.50015 0 1 0 0,-3 h -6 a 1.50015,1.50015 0 0 0 -0.9375,0.328125 L 22,34.378906 V 33.5 A 1.50015,1.50015 0 0 0 20.5,32 H 14 V 10.5 c 0,-0.2921 0.08204,-0.5579386 0.21875,-0.7851562 l 0.101562,-0.1328126 a 1.50015,1.50015 0 0 0 0.06445,-0.091797 C 14.656554,9.1888768 15.049001,9 15.5,9 h 23 c 0.846499,0 1.5,0.6535009 1.5,1.5 v 7.074219 a 1.50015,1.50015 0 1 0 3,0 V 10.5 C 43,8.0324991 40.967501,6 38.5,6 Z m 7.976562,8.978516 A 1.50015,1.50015 0 0 0 22,16.5 v 8 a 1.50015,1.50015 0 1 0 3,0 v -8 a 1.50015,1.50015 0 0 0 -1.523438,-1.521484 z m 8,0 A 1.50015,1.50015 0 0 0 30,16.5 v 8 a 1.50015,1.50015 0 1 0 3,0 v -8 a 1.50015,1.50015 0 0 0 -1.523438,-1.521484 z m 10,9.679687 A 1.50015,1.50015 0 0 0 40,26.179688 c 0,1.120595 -0.416976,2.199403 -1.169922,3.027343 l -7.546875,8.300781 C 30.99749,37.821645 30.596343,38 30.173828,38 H 24.5 a 1.50015,1.50015 0 0 0 -1.060547,0.439453 l -4.414062,4.414063 C 18.931348,42.947559 18.803762,43 18.671875,43 H 18 V 39.5 A 1.50015,1.50015 0 0 0 16.5,38 h -7 C 8.6535009,38 8,37.346499 8,36.5 v -2.839844 a 1.50015,1.50015 0 1 0 -3,0 V 36.5 C 5,38.967501 7.0324991,41 9.5,41 H 15 v 3.5 a 1.50015,1.50015 0 0 0 1.5,1.5 h 2.171875 c 0.928113,0 1.818652,-0.369434 2.474609,-1.025391 L 25.121094,41 h 5.052734 c 1.267485,0 2.475838,-0.536489 3.328125,-1.472656 l 7.548828,-8.302735 h -0.002 C 42.30393,29.844549 43,28.045092 43,26.179688 a 1.50015,1.50015 0 0 0 -1.523438,-1.521485 z"
     id="path1" />
</svg>
